<svg width="145" height="59" viewBox="0 0 145 59" fill="none" xmlns="http://www.w3.org/2000/svg">
<rect width="145" height="59" rx="5" fill="#FBD029"/>
<path d="M44.333 31.5002C44.3315 31.1 44.21 30.7094 43.9842 30.379C43.7584 30.0486 43.4387 29.7936 43.0663 29.6468L44.313 24.9802C44.3391 24.8808 44.3418 24.7767 44.321 24.6761C44.3001 24.5755 44.2564 24.4811 44.193 24.4002C44.1283 24.3244 44.0473 24.2641 43.9562 24.2237C43.865 24.1833 43.766 24.1639 43.6663 24.1668H34.533L34.313 23.3268C34.2748 23.1848 34.1906 23.0594 34.0736 22.9701C33.9567 22.8809 33.8135 22.8329 33.6663 22.8335H32.333V24.1668H33.153L34.8063 30.3402C34.8454 30.4856 34.9326 30.6135 35.0536 30.7031C35.1747 30.7927 35.3225 30.8387 35.473 30.8335H42.333C42.5098 30.8335 42.6794 30.9037 42.8044 31.0288C42.9294 31.1538 42.9997 31.3234 42.9997 31.5002C42.9997 31.677 42.9294 31.8465 42.8044 31.9716C42.6794 32.0966 42.5098 32.1668 42.333 32.1668H33.6663C33.4895 32.1668 33.32 32.2371 33.1949 32.3621C33.0699 32.4871 32.9997 32.6567 32.9997 32.8335C32.9997 33.0103 33.0699 33.1799 33.1949 33.3049C33.32 33.4299 33.4895 33.5002 33.6663 33.5002H34.453C34.3434 33.8023 34.3081 34.1263 34.3503 34.4449C34.3925 34.7635 34.5108 35.0672 34.6952 35.3304C34.8797 35.5936 35.1248 35.8084 35.4099 35.9567C35.695 36.1051 36.0116 36.1825 36.333 36.1825C36.6544 36.1825 36.971 36.1051 37.2561 35.9567C37.5412 35.8084 37.7863 35.5936 37.9708 35.3304C38.1552 35.0672 38.2736 34.7635 38.3157 34.4449C38.3579 34.1263 38.3227 33.8023 38.213 33.5002H39.7863C39.6865 33.7752 39.6483 34.0689 39.6743 34.3603C39.7004 34.6518 39.79 34.934 39.937 35.187C40.084 35.44 40.2847 35.6577 40.525 35.8247C40.7653 35.9917 41.0393 36.1039 41.3277 36.1535C41.6161 36.203 41.9119 36.1887 42.1941 36.1115C42.4764 36.0343 42.7382 35.8961 42.9612 35.7066C43.1843 35.5172 43.363 35.2811 43.4848 35.015C43.6066 34.749 43.6686 34.4594 43.6663 34.1668C43.6651 33.8224 43.5731 33.4844 43.3997 33.1868C43.6848 33.0071 43.9198 32.7582 44.083 32.4634C44.2461 32.1685 44.3321 31.8372 44.333 31.5002ZM41.7263 29.5002H35.9997L34.893 25.5002H42.7997L41.7263 29.5002ZM36.333 34.8335C36.2012 34.8335 36.0723 34.7944 35.9626 34.7211C35.853 34.6479 35.7675 34.5438 35.7171 34.422C35.6666 34.3001 35.6534 34.1661 35.6792 34.0368C35.7049 33.9075 35.7684 33.7887 35.8616 33.6954C35.9548 33.6022 36.0736 33.5387 36.2029 33.513C36.3323 33.4873 36.4663 33.5005 36.5881 33.5509C36.7099 33.6014 36.8141 33.6868 36.8873 33.7965C36.9606 33.9061 36.9997 34.035 36.9997 34.1668C36.9997 34.3436 36.9294 34.5132 36.8044 34.6382C36.6794 34.7633 36.5098 34.8335 36.333 34.8335ZM41.6663 34.8335C41.5345 34.8335 41.4056 34.7944 41.296 34.7211C41.1863 34.6479 41.1009 34.5438 41.0504 34.422C41 34.3001 40.9868 34.1661 41.0125 34.0368C41.0382 33.9075 41.1017 33.7887 41.1949 33.6954C41.2882 33.6022 41.407 33.5387 41.5363 33.513C41.6656 33.4873 41.7996 33.5005 41.9215 33.5509C42.0433 33.6014 42.1474 33.6868 42.2207 33.7965C42.2939 33.9061 42.333 34.035 42.333 34.1668C42.333 34.3436 42.2628 34.5132 42.1377 34.6382C42.0127 34.7633 41.8432 34.8335 41.6663 34.8335Z" fill="#1F1D14"/>
<path d="M59.96 23.976L56.904 29.144L60.264 35H58.504L55.624 29.832H54.12V35H52.6V23.976H54.12V28.584H55.64L58.36 23.976H59.96ZM64.8911 26.376C66.0751 26.376 66.9925 26.7707 67.6431 27.56C68.3045 28.3493 68.6351 29.4213 68.6351 30.776C68.6351 31.6507 68.4858 32.424 68.1871 33.096C67.8885 33.7573 67.4565 34.2747 66.8911 34.648C66.3258 35.0107 65.6538 35.192 64.8751 35.192C63.6911 35.192 62.7685 34.7973 62.1071 34.008C61.4458 33.2187 61.1151 32.1467 61.1151 30.792C61.1151 29.9173 61.2645 29.1493 61.5631 28.488C61.8618 27.816 62.2938 27.2987 62.8591 26.936C63.4245 26.5627 64.1018 26.376 64.8911 26.376ZM64.8911 27.56C63.4298 27.56 62.6991 28.6373 62.6991 30.792C62.6991 32.936 63.4245 34.008 64.8751 34.008C66.3258 34.008 67.0511 32.9307 67.0511 30.776C67.0511 28.632 66.3311 27.56 64.8911 27.56ZM74.9389 26.376C76.0162 26.376 76.8055 26.76 77.3069 27.528C77.8082 28.296 78.0589 29.3787 78.0589 30.776C78.0589 32.0987 77.7709 33.1653 77.1949 33.976C76.6189 34.7867 75.8029 35.192 74.7469 35.192C73.8082 35.192 73.0722 34.872 72.5389 34.232V38.232L71.0669 38.408V26.568H72.3309L72.4429 27.704C72.7522 27.2773 73.1255 26.952 73.5629 26.728C74.0002 26.4933 74.4589 26.376 74.9389 26.376ZM74.3949 33.992C75.7815 33.992 76.4749 32.92 76.4749 30.776C76.4749 28.6213 75.8402 27.544 74.5709 27.544C74.1549 27.544 73.7762 27.6667 73.4349 27.912C73.0935 28.1573 72.7949 28.472 72.5389 28.856V32.968C72.7522 33.2987 73.0189 33.5547 73.3389 33.736C73.6589 33.9067 74.0109 33.992 74.3949 33.992ZM82.2406 26.376C82.774 26.376 83.27 26.4667 83.7286 26.648C84.198 26.8187 84.5713 27.0747 84.8486 27.416C85.1366 27.7573 85.2806 28.168 85.2806 28.648C85.2806 29.1173 85.142 29.5013 84.8646 29.8C84.598 30.0987 84.1713 30.328 83.5846 30.488C84.2886 30.6053 84.822 30.824 85.1846 31.144C85.5473 31.464 85.7286 31.9227 85.7286 32.52C85.7286 33.3947 85.3873 34.0613 84.7046 34.52C84.0326 34.968 83.174 35.192 82.1286 35.192C80.8593 35.192 79.7766 34.84 78.8806 34.136L79.6486 33.224C80.022 33.4907 80.3953 33.688 80.7686 33.816C81.1526 33.944 81.59 34.008 82.0806 34.008C83.4566 34.008 84.1446 33.5067 84.1446 32.504C84.1446 32.0133 83.9473 31.672 83.5526 31.48C83.1686 31.2773 82.63 31.176 81.9366 31.176H80.8166L80.9126 30.024H81.7766C82.374 30.024 82.854 29.9173 83.2166 29.704C83.5793 29.4907 83.7606 29.16 83.7606 28.712C83.7606 28.296 83.606 27.9973 83.2966 27.816C82.9873 27.624 82.582 27.528 82.0806 27.528C81.6433 27.528 81.254 27.5867 80.9126 27.704C80.582 27.8107 80.246 27.9813 79.9046 28.216L79.2006 27.336C79.6273 27.016 80.086 26.776 80.5766 26.616C81.0673 26.456 81.622 26.376 82.2406 26.376ZM94.7206 35H93.2646V31.192C93.2646 30.552 93.286 29.944 93.3286 29.368C93.3713 28.792 93.4086 28.4133 93.4406 28.232L89.9046 35H88.1606V26.568H89.6166V30.376C89.6166 30.9413 89.5953 31.528 89.5526 32.136C89.51 32.7333 89.478 33.1173 89.4566 33.288L92.9446 26.568H94.7206V35ZM102.73 35V31.288H99.2264V35H97.7544V26.568H99.2264V30.104H102.73V26.568H104.202V35H102.73ZM112.919 33.032C112.919 33.3733 112.977 33.6293 113.095 33.8C113.212 33.96 113.388 34.0827 113.623 34.168L113.287 35.192C112.849 35.1387 112.497 35.016 112.231 34.824C111.964 34.632 111.767 34.3333 111.639 33.928C111.073 34.7707 110.236 35.192 109.127 35.192C108.295 35.192 107.639 34.9573 107.159 34.488C106.679 34.0187 106.439 33.4053 106.439 32.648C106.439 31.752 106.759 31.064 107.399 30.584C108.049 30.104 108.967 29.864 110.151 29.864H111.447V29.24C111.447 28.6427 111.303 28.216 111.015 27.96C110.727 27.704 110.284 27.576 109.687 27.576C109.068 27.576 108.311 27.7253 107.415 28.024L107.047 26.952C108.092 26.568 109.063 26.376 109.959 26.376C110.951 26.376 111.692 26.6213 112.183 27.112C112.673 27.592 112.919 28.28 112.919 29.176V33.032ZM109.463 34.088C110.305 34.088 110.967 33.6507 111.447 32.776V30.84H110.343C108.785 30.84 108.007 31.416 108.007 32.568C108.007 33.0693 108.129 33.448 108.375 33.704C108.62 33.96 108.983 34.088 109.463 34.088Z" fill="#1F1D14"/>
</svg>
